<?xml version="1.0" encoding="UTF-8" standalone="no"?>
<!-- Created with Inkscape (http://www.inkscape.org/) -->

<svg
   inkscape:version="1.2.2 (b0a8486541, 2022-12-01)"
   inkscape:export-ydpi="96"
   inkscape:export-xdpi="96"
   inkscape:export-filename="pag313.png"
   sodipodi:docname="pag313.svg"
   id="svg5"
   version="1.1"
   viewBox="0 0 210 297"
   height="297mm"
   width="210mm"
   xmlns:inkscape="http://www.inkscape.org/namespaces/inkscape"
   xmlns:sodipodi="http://sodipodi.sourceforge.net/DTD/sodipodi-0.dtd"
   xmlns="http://www.w3.org/2000/svg"
   xmlns:svg="http://www.w3.org/2000/svg"
   xmlns:ns1="http://www.iki.fi/pav/software/textext/">
  <sodipodi:namedview
     id="namedview7"
     pagecolor="#ffffff"
     bordercolor="#000000"
     borderopacity="0.25"
     inkscape:showpageshadow="2"
     inkscape:pageopacity="0.0"
     inkscape:pagecheckerboard="0"
     inkscape:deskcolor="#d1d1d1"
     inkscape:document-units="mm"
     showgrid="false"
     inkscape:zoom="1.1415115"
     inkscape:cx="396.84227"
     inkscape:cy="544.01556"
     inkscape:window-width="1920"
     inkscape:window-height="961"
     inkscape:window-x="0"
     inkscape:window-y="0"
     inkscape:window-maximized="1"
     inkscape:current-layer="layer1" />
  <defs
     id="defs2">
    <marker
       style="overflow:visible"
       id="marker18232"
       refX="0"
       refY="0"
       orient="auto-start-reverse"
       inkscape:stockid="Arrow4"
       markerWidth="5"
       markerHeight="6"
       viewBox="0 0 5 6"
       inkscape:isstock="true"
       inkscape:collect="always"
       preserveAspectRatio="xMidYMid">
      <path
         style="fill:context-stroke;fill-rule:evenodd;stroke:none"
         d="m 1,0 -3,3 h -2 l 3,-3 -3,-3 h 2 z"
         id="path18230" />
    </marker>
    <marker
       style="overflow:visible"
       id="marker1466"
       refX="0"
       refY="0"
       orient="auto-start-reverse"
       inkscape:stockid="TriangleStart"
       markerWidth="5.3244081"
       markerHeight="6.155385"
       viewBox="0 0 5.3244081 6.1553851"
       inkscape:isstock="true"
       inkscape:collect="always"
       preserveAspectRatio="xMidYMid">
      <path
         transform="scale(0.5)"
         style="fill:context-stroke;fill-rule:evenodd;stroke:context-stroke;stroke-width:1pt"
         d="M 5.77,0 -2.88,5 V -5 Z"
         id="path1464" />
    </marker>
    <marker
       style="overflow:visible"
       id="TriangleStart"
       refX="0"
       refY="0"
       orient="auto-start-reverse"
       inkscape:stockid="TriangleStart"
       markerWidth="5.3244081"
       markerHeight="6.155385"
       viewBox="0 0 5.3244081 6.1553851"
       inkscape:isstock="true"
       inkscape:collect="always"
       preserveAspectRatio="xMidYMid">
      <path
         transform="scale(0.5)"
         style="fill:context-stroke;fill-rule:evenodd;stroke:context-stroke;stroke-width:1pt"
         d="M 5.77,0 -2.88,5 V -5 Z"
         id="path135" />
    </marker>
    <inkscape:path-effect
       effect="spiro"
       id="path-effect24890"
       is_visible="true"
       lpeversion="1" />
    <inkscape:path-effect
       effect="bspline"
       id="path-effect14275"
       is_visible="true"
       lpeversion="1"
       weight="33.333333"
       steps="2"
       helper_size="0"
       apply_no_weight="true"
       apply_with_weight="true"
       only_selected="false" />
    <inkscape:path-effect
       effect="bspline"
       id="path-effect10185"
       is_visible="true"
       lpeversion="1"
       weight="33.333333"
       steps="2"
       helper_size="0"
       apply_no_weight="true"
       apply_with_weight="true"
       only_selected="false" />
    <inkscape:path-effect
       effect="bspline"
       id="path-effect9437"
       is_visible="true"
       lpeversion="1"
       weight="33.333333"
       steps="2"
       helper_size="0"
       apply_no_weight="true"
       apply_with_weight="true"
       only_selected="false" />
    <inkscape:path-effect
       effect="bspline"
       id="path-effect5737"
       is_visible="true"
       lpeversion="1"
       weight="33.333333"
       steps="2"
       helper_size="0"
       apply_no_weight="true"
       apply_with_weight="true"
       only_selected="false" />
    <inkscape:path-effect
       effect="bspline"
       id="path-effect9316"
       is_visible="true"
       lpeversion="1"
       weight="33.333333"
       steps="2"
       helper_size="0"
       apply_no_weight="true"
       apply_with_weight="true"
       only_selected="false" />
    <inkscape:path-effect
       effect="bspline"
       id="path-effect7830"
       is_visible="true"
       lpeversion="1"
       weight="33.333333"
       steps="2"
       helper_size="0"
       apply_no_weight="true"
       apply_with_weight="true"
       only_selected="false" />
    <inkscape:path-effect
       effect="bspline"
       id="path-effect3986"
       is_visible="true"
       lpeversion="1"
       weight="33.333333"
       steps="2"
       helper_size="0"
       apply_no_weight="true"
       apply_with_weight="true"
       only_selected="false" />
    <inkscape:path-effect
       effect="bspline"
       id="path-effect9238"
       is_visible="true"
       lpeversion="1"
       weight="33.333333"
       steps="2"
       helper_size="0"
       apply_no_weight="true"
       apply_with_weight="true"
       only_selected="false" />
    <inkscape:path-effect
       effect="bspline"
       id="path-effect3986-3"
       is_visible="true"
       lpeversion="1"
       weight="33.333333"
       steps="2"
       helper_size="0"
       apply_no_weight="true"
       apply_with_weight="true"
       only_selected="false" />
    <g
       id="id-8080fdec-392b-4c91-96ae-b8718105f8fb-7">
      <g
         id="id-d409be90-d5ed-47cc-8eb1-4e7b16d08c42-5">
        <path
           d="m 3.296875,2.390625 c 0,-0.03125 0,-0.046875 -0.171875,-0.21875 C 1.890625,0.921875 1.5625,-0.96875 1.5625,-2.5 c 0,-1.734375 0.375,-3.46875 1.609375,-4.703125 0.125,-0.125 0.125,-0.140625 0.125,-0.171875 0,-0.078125 -0.03125,-0.109375 -0.09375,-0.109375 -0.109375,0 -1,0.6875 -1.59375,1.953125 -0.5,1.09375 -0.625,2.203125 -0.625,3.03125 0,0.78125 0.109375,1.984375 0.65625,3.125 C 2.25,1.84375 3.09375,2.5 3.203125,2.5 c 0.0625,0 0.09375,-0.03125 0.09375,-0.109375 z m 0,0"
           id="id-39ee267b-85f0-47b8-a5b3-6c6b079eca05-3" />
      </g>
      <g
         id="id-619882c9-b730-44b4-a3c3-4960cbc12953-5">
        <path
           d="m 2.9375,-6.375 c 0,-0.25 0,-0.265625 -0.234375,-0.265625 C 2.078125,-6 1.203125,-6 0.890625,-6 v 0.3125 c 0.203125,0 0.78125,0 1.296875,-0.265625 v 5.171875 c 0,0.359375 -0.03125,0.46875 -0.921875,0.46875 h -0.3125 V 0 c 0.34375,-0.03125 1.203125,-0.03125 1.609375,-0.03125 0.390625,0 1.265625,0 1.609375,0.03125 v -0.3125 h -0.3125 c -0.90625,0 -0.921875,-0.109375 -0.921875,-0.46875 z m 0,0"
           id="id-700cde71-5bc8-4996-b65d-57d3f7dd2045-6" />
      </g>
      <g
         id="id-6dffe10b-cce8-4607-8c32-17e139e4d417-2">
        <path
           d="m 4.578125,-3.1875 c 0,-0.796875 -0.046875,-1.59375 -0.390625,-2.328125 -0.453125,-0.96875 -1.28125,-1.125 -1.6875,-1.125 -0.609375,0 -1.328125,0.265625 -1.75,1.1875 -0.3125,0.6875 -0.359375,1.46875 -0.359375,2.265625 0,0.75 0.03125,1.640625 0.453125,2.40625 0.421875,0.796875 1.15625,1 1.640625,1 0.53125,0 1.296875,-0.203125 1.734375,-1.15625 0.3125,-0.6875 0.359375,-1.46875 0.359375,-2.25 z M 2.484375,0 C 2.09375,0 1.5,-0.25 1.328125,-1.203125 1.21875,-1.796875 1.21875,-2.71875 1.21875,-3.3125 c 0,-0.640625 0,-1.296875 0.078125,-1.828125 0.1875,-1.1875 0.9375,-1.28125 1.1875,-1.28125 0.328125,0 0.984375,0.1875 1.171875,1.171875 0.109375,0.5625 0.109375,1.3125 0.109375,1.9375 0,0.75 0,1.421875 -0.109375,2.0625 C 3.5,-0.296875 2.9375,0 2.484375,0 Z m 0,0"
           id="id-0d6f07c9-ba90-4238-8459-97148ce23d21-9" />
      </g>
      <g
         id="id-00d30bf4-9be2-447e-a702-0d1d7617f972-1">
        <path
           d="m 2.875,-2.5 c 0,-0.765625 -0.109375,-1.96875 -0.65625,-3.109375 -0.59375,-1.21875 -1.453125,-1.875 -1.546875,-1.875 -0.0625,0 -0.109375,0.046875 -0.109375,0.109375 0,0.03125 0,0.046875 0.1875,0.234375 0.984375,0.984375 1.546875,2.5625 1.546875,4.640625 0,1.71875 -0.359375,3.46875 -1.59375,4.71875 C 0.5625,2.34375 0.5625,2.359375 0.5625,2.390625 0.5625,2.453125 0.609375,2.5 0.671875,2.5 0.765625,2.5 1.671875,1.8125 2.25,0.546875 2.765625,-0.546875 2.875,-1.65625 2.875,-2.5 Z m 0,0"
           id="id-963d2a4a-d412-4891-a7f0-7156cdf89dc4-2" />
      </g>
      <g
         id="id-67af4732-b6b9-4cdf-be1e-235310e14772-7">
        <path
           d="m 6.84375,-3.265625 c 0.15625,0 0.34375,0 0.34375,-0.1875 C 7.1875,-3.65625 7,-3.65625 6.859375,-3.65625 h -5.96875 c -0.140625,0 -0.328125,0 -0.328125,0.203125 0,0.1875 0.1875,0.1875 0.328125,0.1875 z m 0.015625,1.9375 c 0.140625,0 0.328125,0 0.328125,-0.203125 0,-0.1875 -0.1875,-0.1875 -0.34375,-0.1875 H 0.890625 c -0.140625,0 -0.328125,0 -0.328125,0.1875 0,0.203125 0.1875,0.203125 0.328125,0.203125 z m 0,0"
           id="id-9abf4136-95fd-4b55-bee2-8afd88aebc2c-0" />
      </g>
      <g
         id="id-cd65ab72-5e26-4974-8256-97ffbd963579-9">
        <path
           d="m 2.890625,-3.515625 c 0.8125,-0.265625 1.390625,-0.953125 1.390625,-1.75 0,-0.8125 -0.875,-1.375 -1.828125,-1.375 -1,0 -1.765625,0.59375 -1.765625,1.359375 0,0.328125 0.21875,0.515625 0.515625,0.515625 0.296875,0 0.5,-0.21875 0.5,-0.515625 0,-0.484375 -0.46875,-0.484375 -0.609375,-0.484375 0.296875,-0.5 0.953125,-0.625 1.3125,-0.625 0.421875,0 0.96875,0.21875 0.96875,1.109375 0,0.125 -0.03125,0.703125 -0.28125,1.140625 C 2.796875,-3.65625 2.453125,-3.625 2.203125,-3.625 2.125,-3.609375 1.890625,-3.59375 1.8125,-3.59375 c -0.078125,0.015625 -0.140625,0.03125 -0.140625,0.125 0,0.109375 0.0625,0.109375 0.234375,0.109375 h 0.4375 c 0.8125,0 1.1875,0.671875 1.1875,1.65625 0,1.359375 -0.6875,1.640625 -1.125,1.640625 -0.4375,0 -1.1875,-0.171875 -1.53125,-0.75 0.34375,0.046875 0.65625,-0.171875 0.65625,-0.546875 0,-0.359375 -0.265625,-0.5625 -0.546875,-0.5625 -0.25,0 -0.5625,0.140625 -0.5625,0.578125 0,0.90625 0.921875,1.5625 2.015625,1.5625 1.21875,0 2.125,-0.90625 2.125,-1.921875 0,-0.8125 -0.640625,-1.59375 -1.671875,-1.8125 z m 0,0"
           id="id-5eb3d595-61f9-48e3-9e91-1b36f4d7a10a-3" />
      </g>
      <g
         id="id-5ff4e953-13ea-4bcd-8e43-70848ba73332-6">
        <path
           d="m 6.5625,-2.296875 c 0.171875,0 0.359375,0 0.359375,-0.203125 0,-0.1875 -0.1875,-0.1875 -0.359375,-0.1875 H 1.171875 c -0.171875,0 -0.34375,0 -0.34375,0.1875 0,0.203125 0.171875,0.203125 0.34375,0.203125 z m 0,0"
           id="id-cccb5bb8-bdd3-4107-9716-960623c40820-0" />
      </g>
      <g
         id="id-54fc8c87-4ee9-4415-800a-5c60b51a4a5c-6">
        <path
           d="m 2.03125,-0.015625 c 0,-0.65625 -0.25,-1.046875 -0.640625,-1.046875 -0.328125,0 -0.53125,0.25 -0.53125,0.53125 C 0.859375,-0.265625 1.0625,0 1.390625,0 1.5,0 1.640625,-0.046875 1.734375,-0.125 1.765625,-0.15625 1.78125,-0.15625 1.78125,-0.15625 c 0.015625,0 0.015625,0 0.015625,0.140625 0,0.75 -0.34375,1.34375 -0.671875,1.671875 -0.109375,0.109375 -0.109375,0.125 -0.109375,0.15625 0,0.078125 0.046875,0.109375 0.09375,0.109375 0.109375,0 0.921875,-0.765625 0.921875,-1.9375 z m 0,0"
           id="id-c2b330d4-099c-44bf-b757-b875bd139273-2" />
      </g>
      <g
         id="id-b1ea3612-3acf-42ae-a7d3-a343f4673747-6">
        <path
           d="m 3.65625,-3.984375 h 0.859375 c 0.203125,0 0.296875,0 0.296875,-0.203125 0,-0.109375 -0.09375,-0.109375 -0.265625,-0.109375 H 3.71875 L 3.921875,-5.4375 c 0.046875,-0.203125 0.1875,-0.90625 0.25,-1.03125 0.078125,-0.1875 0.25,-0.34375 0.46875,-0.34375 0.03125,0 0.296875,0 0.484375,0.1875 -0.4375,0.03125 -0.546875,0.390625 -0.546875,0.53125 0,0.234375 0.1875,0.359375 0.375,0.359375 C 5.21875,-5.734375 5.5,-5.96875 5.5,-6.34375 c 0,-0.453125 -0.453125,-0.6875 -0.859375,-0.6875 -0.34375,0 -0.96875,0.1875 -1.265625,1.171875 -0.0625,0.203125 -0.09375,0.3125 -0.328125,1.5625 h -0.6875 c -0.203125,0 -0.3125,0 -0.3125,0.1875 0,0.125 0.09375,0.125 0.28125,0.125 h 0.65625 L 2.25,-0.046875 c -0.1875,0.96875 -0.359375,1.875 -0.875,1.875 -0.046875,0 -0.28125,0 -0.484375,-0.1875 C 1.359375,1.609375 1.453125,1.25 1.453125,1.109375 1.453125,0.875 1.265625,0.75 1.078125,0.75 0.8125,0.75 0.53125,0.984375 0.53125,1.359375 c 0,0.4375 0.4375,0.6875 0.84375,0.6875 0.546875,0 0.953125,-0.59375 1.125,-0.96875 0.328125,-0.625 0.546875,-1.828125 0.5625,-1.90625 z m 0,0"
           id="id-0fda7b19-0525-49ae-80d7-bf81111c731d-1" />
      </g>
      <g
         id="id-1051038f-9552-4e89-9a6c-727409e58a0f-8">
        <path
           d="m 6.734375,-4.96875 c 0.109375,-0.0625 0.1875,-0.109375 0.1875,-0.21875 0,-0.109375 -0.09375,-0.203125 -0.203125,-0.203125 -0.03125,0 -0.046875,0 -0.171875,0.078125 l -5.53125,2.59375 c -0.109375,0.0625 -0.1875,0.109375 -0.1875,0.21875 0,0.125 0.078125,0.171875 0.1875,0.234375 l 5.53125,2.59375 C 6.671875,0.40625 6.6875,0.40625 6.71875,0.40625 c 0.109375,0 0.203125,-0.09375 0.203125,-0.203125 0,-0.109375 -0.078125,-0.15625 -0.1875,-0.21875 L 1.5,-2.5 Z m 0,0"
           id="id-6cfdab35-69b9-4da2-9ed5-525f39da1183-7" />
      </g>
    </g>
    <clipPath
       id="clipPath6299">
      <rect
         style="fill:#ff0000;fill-opacity:0.00189885;stroke:#ffcc00;stroke-width:0.7;stroke-linecap:square;stroke-dasharray:none;stroke-opacity:1"
         width="183.38246"
         height="125.19542"
         x="10.943926"
         y="97.708176"
         id="rect8503" />
    </clipPath>
    <clipPath
       id="clipPath318">
      <rect
         style="fill:#ff0000;fill-opacity:0.00189885;stroke:#ffcc00;stroke-width:0.7;stroke-linecap:square;stroke-dasharray:none;stroke-opacity:1"
         width="120.59101"
         height="87.639801"
         x="33.552151"
         y="105.96619"
         id="rect9456" />
    </clipPath>
    <marker
       style="overflow:visible"
       id="marker18232-3"
       refX="0"
       refY="0"
       orient="auto-start-reverse"
       inkscape:stockid="Arrow4"
       markerWidth="5"
       markerHeight="6"
       viewBox="0 0 5 6"
       inkscape:isstock="true"
       inkscape:collect="always"
       preserveAspectRatio="xMidYMid">
      <path
         style="fill:context-stroke;fill-rule:evenodd;stroke:none"
         d="m 1,0 -3,3 h -2 l 3,-3 -3,-3 h 2 z"
         id="path18230-6" />
    </marker>
    <marker
       style="overflow:visible"
       id="marker18232-5"
       refX="0"
       refY="0"
       orient="auto-start-reverse"
       inkscape:stockid="Arrow4"
       markerWidth="5"
       markerHeight="6"
       viewBox="0 0 5 6"
       inkscape:isstock="true"
       inkscape:collect="always"
       preserveAspectRatio="xMidYMid">
      <path
         style="fill:context-stroke;fill-rule:evenodd;stroke:none"
         d="m 1,0 -3,3 h -2 l 3,-3 -3,-3 h 2 z"
         id="path18230-3" />
    </marker>
    <marker
       style="overflow:visible"
       id="marker18232-3-6"
       refX="0"
       refY="0"
       orient="auto-start-reverse"
       inkscape:stockid="Arrow4"
       markerWidth="5"
       markerHeight="6"
       viewBox="0 0 5 6"
       inkscape:isstock="true"
       inkscape:collect="always"
       preserveAspectRatio="xMidYMid">
      <path
         style="fill:context-stroke;fill-rule:evenodd;stroke:none"
         d="m 1,0 -3,3 h -2 l 3,-3 -3,-3 h 2 z"
         id="path18230-6-2" />
    </marker>
    <marker
       style="overflow:visible"
       id="marker18232-7"
       refX="0"
       refY="0"
       orient="auto-start-reverse"
       inkscape:stockid="Arrow4"
       markerWidth="5"
       markerHeight="6"
       viewBox="0 0 5 6"
       inkscape:isstock="true"
       inkscape:collect="always"
       preserveAspectRatio="xMidYMid">
      <path
         style="fill:context-stroke;fill-rule:evenodd;stroke:none"
         d="m 1,0 -3,3 h -2 l 3,-3 -3,-3 h 2 z"
         id="path18230-5" />
    </marker>
  </defs>
  <g
     inkscape:label="Livello 1"
     inkscape:groupmode="layer"
     id="layer1">
    <path
       style="fill:#000000;fill-opacity:1;stroke:#000000;stroke-width:0.446968;stroke-linecap:round;stroke-linejoin:round;stroke-dasharray:none;stroke-opacity:1;marker-end:url(#marker1466)"
       d="M 101.23108,101.14779 V 222.45712 Z"
       id="path236" />
    <path
       style="fill:#000000;fill-opacity:1;stroke:#000000;stroke-width:0.4;stroke-linecap:round;stroke-linejoin:round;stroke-dasharray:none;stroke-dashoffset:0;stroke-opacity:1;marker-end:url(#TriangleStart)"
       d="M 192.97281,122.95563 12.720233,123.10336 Z"
       id="path1170" />
    <g
       transform="matrix(0.681346,0,0,0.681346,105.793,136.908)"
       ns1:version="1.8.2"
       ns1:texconverter="pdflatex"
       ns1:pdfconverter="inkscape"
       ns1:text="$\\sigma$"
       ns1:preamble="/usr/share/inkscape/extensions/textext/default_packages.tex"
       ns1:scale="1.931372248666192"
       ns1:alignment="middle center"
       ns1:stroke-to-path="0"
       ns1:inkscapeversion="1.2.2"
       ns1:jacobian_sqrt="0.681346"
       id="g6212">
      <defs
         id="id-2f1cd8e7-7ffd-452a-93b6-cd65c0e485d0">
        <g
           id="id-332604d2-68f1-4835-9692-639b6de6628b">
          <g
             id="id-71ce5838-8318-4f2e-8f07-456796bfa28f">
            <path
               d="m 5.15625,-3.71875 c 0.140625,0 0.5,0 0.5,-0.34375 0,-0.234375 -0.21875,-0.234375 -0.390625,-0.234375 h -2.28125 c -1.5,0 -2.609375,1.640625 -2.609375,2.828125 0,0.875 0.59375,1.578125 1.5,1.578125 1.171875,0 2.5,-1.203125 2.5,-2.734375 0,-0.171875 0,-0.65625 -0.3125,-1.09375 z M 1.890625,-0.109375 C 1.390625,-0.109375 1,-0.46875 1,-1.1875 c 0,-0.296875 0.109375,-1.109375 0.46875,-1.703125 0.421875,-0.6875 1.015625,-0.828125 1.359375,-0.828125 0.828125,0 0.90625,0.65625 0.90625,0.96875 0,0.46875 -0.203125,1.28125 -0.53125,1.796875 -0.390625,0.578125 -0.9375,0.84375 -1.3125,0.84375 z m 0,0"
               id="id-da1b88e9-c827-4591-bfe4-7e849ce24d7d" />
          </g>
        </g>
      </defs>
      <g
         fill="#000000"
         fill-opacity="1"
         id="id-d0ecd16f-a189-4e14-b26c-723ec94f2983"
         transform="translate(-149.087,-130.468)">
        <g
           transform="translate(148.712,134.765)"
           id="g6209" />
      </g>
    </g>
    <path
       style="fill:#000000;fill-opacity:0.00189885;stroke:#ff0000;stroke-width:0.7;stroke-linecap:square;stroke-dasharray:none;stroke-opacity:1"
       d="m 84.854302,222.65935 c 0.08566,-1.04244 0.08873,-1.21593 0.174386,-2.24218 0.08564,-1.02623 0.171293,-2.04498 0.256934,-3.05502 0.08566,-1.01003 0.171294,-2.01257 0.256996,-3.00638 0.08554,-0.99383 0.171206,-1.97891 0.256872,-2.95653 0.08567,-0.97761 0.171331,-1.94773 0.256995,-2.90913 0.08567,-0.96014 0.171207,-1.91406 0.256872,-2.85925 0.08567,-0.94393 0.17133,-1.88165 0.256996,-2.80938 0.08567,-0.92896 0.171331,-1.84922 0.256872,-2.76199 0.08567,-0.91152 0.17133,-1.81555 0.256995,-2.71211 0.08567,-0.89531 0.171331,-1.78313 0.256873,-2.66348 0.08567,-0.87909 0.171329,-1.75071 0.256995,-2.6136 0.08567,-0.86414 0.171331,-1.71955 0.256997,-2.56622 0.08554,-0.84668 0.171205,-1.68588 0.256871,-2.51635 0.08567,-0.83046 0.171331,-1.65345 0.256996,-2.46771 0.08567,-0.81425 0.171206,-1.61979 0.256871,-2.41783 0.08567,-0.79804 0.171331,-1.58861 0.256997,-2.37045 0.08567,-0.78184 0.17133,-1.55495 0.256871,-2.32057 0.08567,-0.76562 0.171331,-1.52252 0.256996,-2.27194 0.08567,-0.74817 0.17133,-1.48886 0.256996,-2.22206 0.08554,-0.73321 0.171206,-1.45769 0.256871,-2.17343 0.08567,-0.717 0.171331,-1.42527 0.256996,-2.1248 0.08555,-0.70079 0.171207,-1.39284 0.256871,-2.07618 0.08567,-0.68456 0.171331,-1.35916 0.256997,-2.02753 0.08567,-0.66712 0.171205,-1.32675 0.256871,-1.97766 0.08567,-0.6509 0.171331,-1.29434 0.256996,-1.92903 0.08567,-0.6347 0.171331,-1.26066 0.256871,-1.8804 0.08567,-0.61848 0.171331,-1.22824 0.256997,-1.83052 0.08567,-0.60227 0.171331,-1.19582 0.256995,-1.78188 0.08555,-0.58607 0.171207,-1.16342 0.256872,-1.73327 0.08567,-0.56986 0.17133,-1.13098 0.256996,-1.68462 0.08554,-0.5524 0.171206,-1.09732 0.256872,-1.63476 0.08567,-0.53743 0.17133,-1.06614 0.256995,-1.58612 0.08567,-0.52122 0.171207,-1.03371 0.256873,-1.53748 0.08567,-0.50377 0.171329,-1.00005 0.256995,-1.48886 0.08567,-0.48756 0.171331,-0.96763 0.256872,-1.43898 0.08567,-0.47134 0.17133,-0.93521 0.256996,-1.39034 0.08567,-0.45514 0.171331,-0.90279 0.256996,-1.34172 0.08554,-0.43893 0.171206,-0.86913 0.256871,-1.29184 0.08567,-0.42272 0.171331,-0.83795 0.256997,-1.24445 0.08554,-0.40651 0.171205,-0.80428 0.256871,-1.19458 0.08567,-0.38904 0.171331,-0.77187 0.256996,-1.1447 0.08567,-0.37409 0.171206,-0.73944 0.256871,-1.09731 0.08567,-0.35788 0.171331,-0.70702 0.256997,-1.04744 0.08567,-0.34166 0.17133,-0.6746 0.256871,-0.9988 0.08567,-0.32546 0.171331,-0.64094 0.256995,-0.95018 0.08567,-0.308 0.171331,-0.60851 0.256997,-0.9003 0.08554,-0.29303 0.171206,-0.57609 0.256871,-0.85167 0.08567,-0.27682 0.171331,-0.54366 0.256996,-0.80303 0.08567,-0.25937 0.171206,-0.51124 0.256871,-0.7544 0.08567,-0.24315 0.171331,-0.47759 0.256997,-0.70453 0.08567,-0.22695 0.171205,-0.4464 0.256871,-0.65713 0.08567,-0.20949 0.171332,-0.41275 0.256992,-0.60603 0.0857,-0.19452 0.17134,-0.38032 0.25688,-0.55863 0.0857,-0.17831 0.17132,-0.3479 0.25699,-0.50876 0.0857,-0.1621 0.17133,-0.31547 0.257,-0.46012 0.0855,-0.14589 0.1712,-0.28305 0.25687,-0.41149 0.0857,-0.12968 0.17133,-0.2494 0.25699,-0.36286 0.0857,-0.11222 0.17122,-0.21697 0.25687,-0.31299 0.0857,-0.096 0.17135,-0.18455 0.25701,-0.26435 0.0857,-0.0798 0.171201,-0.15213 0.256871,-0.21572 0.0857,-0.0635 0.17133,-0.11846 0.257,-0.16584 0.0857,-0.0474 0.17133,-0.0873 0.25687,-0.11847 0.0857,-0.0299 0.17133,-0.0537 0.257,-0.0673 0.0857,-0.015 0.17133,-0.0212 0.257,-0.02 0.0856,0.001 0.1712,0.0112 0.25686,0.0287 0.0857,0.0187 0.17134,0.0449 0.257,0.0786 0.0857,0.0349 0.1712,0.0773 0.25687,0.12719 0.0857,0.0511 0.17133,0.10978 0.257,0.17707 0.0857,0.0661 0.1712,0.1409 0.25687,0.22444 0.0857,0.0836 0.17133,0.17458 0.257,0.27433 0.0857,0.0998 0.17133,0.20699 0.25686,0.32296 0.0857,0.11597 0.17134,0.24067 0.257,0.37284 0.0857,0.13218 0.17134,0.27184 0.257,0.42022 0.0856,0.14839 0.1712,0.3055 0.25687,0.4701 0.0857,0.16459 0.17133,0.33793 0.257,0.51873 0.0857,0.18205 0.1712,0.3716 0.25687,0.56861 0.0857,0.19702 0.17133,0.40276 0.25699,0.61724 0.0857,0.21322 0.1712,0.43518 0.25687,0.66587 0.0857,0.22944 0.17133,0.46761 0.257,0.7145 0.0857,0.24565 0.17133,0.50128 0.25687,0.76313 0.0857,0.26311 0.17133,0.5337 0.257,0.81301 0.0857,0.27932 0.17133,0.56612 0.257,0.86165 0.0855,0.29552 0.1712,0.59853 0.25686,0.91027 0.0857,0.31174 0.17134,0.6322 0.257,0.96015 0.0857,0.32794 0.1712,0.66462 0.25687,1.00879 0.0857,0.34415 0.17133,0.69704 0.257,1.05741 0.0857,0.36036 0.17133,0.72946 0.25687,1.10604 0.0857,0.37658 0.17133,0.76188 0.257,1.15592 0.0857,0.39279 0.17133,0.7943 0.25686,1.20455 0.0857,0.409 0.17134,0.82673 0.257,1.25318 0.0857,0.42521 0.17134,0.86039 0.257,1.30181 0.0856,0.44267 0.1712,0.89283 0.25687,1.3517 0.0857,0.45887 0.17133,0.92524 0.257,1.40033 0.0857,0.47508 0.1712,0.95765 0.25687,1.44895 0.0857,0.49129 0.17133,0.99008 0.257,1.49758 0.0857,0.50751 0.17133,1.02374 0.25686,1.54746 0.0857,0.52373 0.17134,1.05617 0.257,1.5961 0.0857,0.53993 0.17134,1.08858 0.25687,1.64472 0.0857,0.55739 0.17133,1.12102 0.257,1.6946 0.0857,0.57236 0.17133,1.15344 0.257,1.74324 0.0856,0.58856 0.1712,1.18585 0.25687,1.79186 0.0857,0.60478 0.17133,1.21828 0.257,1.8405 0.0857,0.62222 0.1712,1.25193 0.25686,1.88913 0.0857,0.63844 0.17134,1.28436 0.257,1.939 0.0857,0.65465 0.17134,1.31678 0.25687,1.98764 0.0857,0.67086 0.17133,1.35044 0.257,2.03752 0.0857,0.68706 0.17133,1.38161 0.25686,2.0849 0.0857,0.70327 0.17134,1.41527 0.257,2.13476 0.0857,0.7195 0.17134,1.44771 0.257,2.18341 0.0856,0.73695 0.1712,1.48013 0.25687,2.23329 0.0857,0.75191 0.17133,1.51254 0.257,2.28067 0.0857,0.76936 0.1712,1.54622 0.25687,2.33054 0.0857,0.78558 0.17133,1.57864 0.257,2.37919 0.0857,0.80177 0.17133,1.61105 0.25686,2.42905 0.0857,0.818 0.17134,1.64348 0.257,2.47769 0.0857,0.83295 0.17134,1.6759 0.257,2.52631 0.0856,0.84918 0.1712,1.70832 0.25687,2.57495 0.0857,0.86663 0.17133,1.74074 0.257,2.62358 0.0856,0.88284 0.1712,1.77441 0.25687,2.67345 0.0857,0.89906 0.17133,1.80684 0.257,2.72209 0.0857,0.91527 0.1712,1.83926 0.25686,2.77072 0.0857,0.93273 0.17134,1.87168 0.257,2.8206 0.0857,0.94768 0.17134,1.90409 0.25687,2.86923 0.0857,0.96389 0.17133,1.93651 0.257,2.91786 0.0857,0.9801 0.17133,1.96893 0.257,2.9665 0.0856,0.99755 0.1712,2.0026 0.25687,3.01636 0.0857,1.01252 0.3871,3.11355 0.47276,4.14352"
       title="-x*x"
       id="path13731"
       sodipodi:nodetypes="csscsccccccccsssscccccccsscscscscsccscscccscccccssscccccccssssccsccccsscscscsccccscsssscccccsssscsccccscscscscccccccsscssccccccc" />
    <path
       style="fill:#008080;fill-opacity:0.00189885;stroke:#ffaa00;stroke-width:0.7;stroke-linecap:square;stroke-dasharray:none;stroke-opacity:1;marker-end:url(#marker18232-3)"
       d="m 116.48265,210.20102 -0.0365,-0.44602 z"
       id="path18228-7"
       sodipodi:nodetypes="ccc" />
    <path
       style="fill:#0000ff;fill-opacity:0.00189885;stroke:#ffaa00;stroke-width:0.7;stroke-linecap:square;stroke-dasharray:none;stroke-opacity:1;marker-end:url(#marker18232-3-6)"
       d="m 111.76517,165.47079 -0.0365,-0.44602 z"
       id="path18228-7-9"
       sodipodi:nodetypes="ccc" />
    <path
       style="fill:#000000;fill-opacity:0.00189885;stroke:#0000ff;stroke-width:0.7;stroke-linecap:square;stroke-dasharray:none;stroke-opacity:1"
       d="m 80.846816,222.60819 c 0.111203,-1.29196 0.222568,-2.57258 0.333933,-3.84347 0.111365,-1.27089 0.22273,-2.53205 0.334095,-3.78186 0.111364,-1.2482 0.222567,-2.4883 0.333933,-3.71704 0.111365,-1.22712 0.22273,-2.44613 0.334095,-3.65219 0.111365,-1.20766 0.22273,-2.40399 0.333933,-3.59058 0.111364,-1.18498 0.22273,-2.36023 0.334094,-3.52575 0.111366,-1.16391 0.222731,-2.31808 0.333934,-3.46253 0.111365,-1.14283 0.22273,-2.27593 0.334095,-3.39769 0.111365,-1.12338 0.222729,-2.2354 0.334095,-3.33609 0.111203,-1.10068 0.222567,-2.19163 0.333933,-3.27124 0.111365,-1.07961 0.22273,-2.14949 0.334095,-3.20802 0.111365,-1.05854 0.222567,-2.10573 0.333933,-3.14319 0.111364,-1.03746 0.22273,-2.0652 0.334094,-3.08158 0.111366,-1.01639 0.222731,-2.02144 0.333934,-3.01674 0.111365,-0.99532 0.22273,-1.97929 0.334094,-2.95353 0.111366,-0.97262 0.22273,-1.93551 0.334096,-2.88868 0.111203,-0.95317 0.222567,-1.89499 0.333933,-2.82546 0.111365,-0.9321 0.22273,-1.85284 0.334095,-2.76225 0.111203,-0.91102 0.222567,-1.8107 0.333933,-2.69901 0.111364,-0.88996 0.22273,-1.76694 0.334094,-2.63581 0.111366,-0.86725 0.222569,-1.72477 0.333934,-2.57096 0.111364,-0.84618 0.22273,-1.68263 0.334094,-2.50774 0.111366,-0.8251 0.22273,-1.63886 0.333933,-2.44452 0.111366,-0.80403 0.22273,-1.59671 0.334096,-2.37968 0.111365,-0.78295 0.222729,-1.55456 0.334095,-2.31645 0.111203,-0.76188 0.222567,-1.51243 0.333933,-2.25323 0.111364,-0.74082 0.22273,-1.47028 0.334094,-2.19002 0.111203,-0.71812 0.222568,-1.42652 0.333934,-2.12517 0.111364,-0.69867 0.22273,-1.38599 0.334094,-2.06196 0.111366,-0.6776 0.222569,-1.34384 0.333933,-1.99873 0.111366,-0.65491 0.22273,-1.30008 0.334095,-1.93552 0.111366,-0.63382 0.22273,-1.25792 0.333933,-1.87068 0.111366,-0.61274 0.22273,-1.21577 0.334096,-1.80744 0.111364,-0.59168 0.22273,-1.17363 0.334095,-1.74424 0.111202,-0.5706 0.222567,-1.12986 0.333933,-1.67939 0.111364,-0.54953 0.22273,-1.08933 0.334094,-1.61779 0.111203,-0.52846 0.222569,-1.04556 0.333933,-1.55295 0.111365,-0.50576 0.222731,-1.00342 0.334095,-1.48811 0.111366,-0.48631 0.222569,-0.96127 0.333933,-1.42651 0.111366,-0.46524 0.22273,-0.91913 0.334096,-1.36167 0.111364,-0.44416 0.222729,-0.87698 0.333932,-1.29845 0.111366,-0.42308 0.22273,-0.83321 0.334096,-1.23522 0.111364,-0.4004 0.22273,-0.79107 0.334094,-1.17039 0.111203,-0.38095 0.222568,-0.74892 0.333933,-1.10716 0.111365,-0.35987 0.222731,-0.70678 0.334095,-1.04395 0.111366,-0.33717 0.222569,-0.66463 0.333933,-0.98073 0.111366,-0.31609 0.22273,-0.62085 0.334095,-0.91588 0.111365,-0.29503 0.222568,-0.58033 0.333933,-0.85428 0.111366,-0.27234 0.22273,-0.53657 0.334096,-0.78783 0.111364,-0.25288 0.22273,-0.49441 0.333932,-0.72622 0.111365,-0.23181 0.22273,-0.45227 0.334095,-0.66138 0.111365,-0.21074 0.222731,-0.41012 0.334095,-0.59816 0.111203,-0.18966 0.222569,-0.36797 0.333933,-0.53494 0.111365,-0.16859 0.22273,-0.32421 0.334095,-0.47172 0.111365,-0.1459 0.222568,-0.28207 0.333933,-0.40689 0.111381,-0.12481 0.222739,-0.23991 0.334103,-0.34365 0.111365,-0.10375 0.222568,-0.19777 0.333929,-0.28045 0.111365,-0.0826 0.222728,-0.15399 0.334088,-0.21559 0.11138,-0.0616 0.22274,-0.11348 0.33394,-0.154 0.11137,-0.0389 0.22273,-0.0697 0.3341,-0.0876 0.11136,-0.0194 0.22272,-0.0276 0.33409,-0.0259 0.1112,0.002 0.22257,0.0146 0.33393,0.0372 0.11136,0.0243 0.22274,0.0583 0.3341,0.10212 0.11136,0.0454 0.22257,0.1005 0.33393,0.16534 0.11137,0.0665 0.22273,0.14266 0.33409,0.23019 0.11137,0.0859 0.22257,0.18317 0.33394,0.29179 0.11136,0.10861 0.22273,0.22694 0.3341,0.35663 0.11136,0.12968 0.22272,0.26909 0.33393,0.41984 0.11136,0.15076 0.22273,0.31286 0.33409,0.4847 0.11136,0.17182 0.22273,0.35337 0.3341,0.54628 0.11119,0.19291 0.22257,0.39715 0.33393,0.61113 0.11136,0.21398 0.22273,0.4393 0.33409,0.67435 0.11137,0.23667 0.22257,0.48307 0.33393,0.73919 0.11137,0.25613 0.22273,0.52359 0.3341,0.80242 0.11137,0.27719 0.22257,0.56574 0.33394,0.86563 0.11136,0.29827 0.22272,0.60788 0.33409,0.92885 0.11136,0.31934 0.22273,0.65165 0.33393,0.99207 0.11136,0.34204 0.22273,0.69381 0.3341,1.05691 0.11136,0.36311 0.22273,0.73595 0.33409,1.12014 0.11121,0.38419 0.22257,0.7781 0.33393,1.18335 0.11137,0.40526 0.22273,0.82186 0.3341,1.2482 0.11137,0.42633 0.22256,0.86401 0.33394,1.31142 0.11136,0.4474 0.22272,0.90616 0.33409,1.37463 0.11136,0.46848 0.22273,0.9483 0.33393,1.43785 0.11136,0.48956 0.22273,0.99047 0.3341,1.50271 0.11136,0.51062 0.22273,1.03259 0.33393,1.56592 0.11137,0.5317 0.22273,1.07474 0.33409,1.62914 0.11137,0.55277 0.22273,1.11851 0.3341,1.69236 0.1112,0.57546 0.22256,1.16065 0.33393,1.7572 0.11137,0.59654 0.22273,1.2028 0.3341,1.82041 0.11136,0.61762 0.22257,1.24496 0.33393,1.88365 0.11136,0.63868 0.22273,1.2871 0.33409,1.94686 0.11137,0.65976 0.22274,1.33087 0.33393,2.0117 0.11138,0.68083 0.22274,1.37302 0.3341,2.07492 0.11137,0.70191 0.22273,1.41517 0.33394,2.13815 0.11136,0.7246 0.22272,1.45731 0.33409,2.20298 0.11136,0.74406 0.22273,1.49946 0.3341,2.26621 0.11119,0.76512 0.22257,1.5416 0.33393,2.32942 0.11136,0.7862 0.22273,1.58375 0.33409,2.39265 0.11137,0.8089 0.22257,1.62752 0.33393,2.45587 0.11137,0.82996 0.22274,1.66966 0.3341,2.5207 0.11137,0.85104 0.22273,1.71181 0.33394,2.58393 0.11136,0.87212 0.22272,1.75558 0.33409,2.64877 0.11136,0.89318 0.22273,1.7961 0.33393,2.71036 0.11136,0.91426 0.22274,1.83988 0.3341,2.77521 0.11136,0.93534 0.22273,1.88202 0.33409,2.83843 0.11121,0.95804 0.22257,1.92417 0.33393,2.90327 0.11137,0.97749 0.22273,1.96632 0.3341,2.96488 0.11137,1.00017 0.22256,2.01008 0.33394,3.02971 0.11136,1.02125 0.22272,2.05223 0.33409,3.09293 0.11136,1.04232 0.22272,2.09438 0.33393,3.15778 0.11136,1.06339 0.22273,2.13652 0.3341,3.22099 0.11136,1.08285 0.22273,2.17867 0.33409,3.28422 0.11121,1.10392 0.22257,2.2208 0.33393,3.34743 0.11137,1.12662 0.22273,2.26296 0.3341,3.41065 0.1112,1.14769 0.22256,2.30673 0.33394,3.4755 0.11136,1.16876 0.22272,2.34887 0.33409,3.53872 0.11136,1.18983 0.22257,2.39102 0.33393,3.60194 0.11136,1.21252 0.22273,2.43316 0.33409,3.66677 0.11137,1.23199 0.22274,2.47532 0.33394,3.73 0.11137,1.25305 0.22273,2.51746 0.33409,3.79322 0.11137,1.27413 0.0526,1.59168 0.16396,2.88851"
       title="-x*x"
       id="path13731-3"
       sodipodi:nodetypes="csccccccccsssscccccccsscscscscsccscscccscccccssscccccccssssccsccccsscscscsccccscsssscccccsssscsccccscscscscccccccsscssccccc" />
    <path
       d="m 90.556269,165.73351 0.0416,-0.42605 z"
       style="fill:#ffff00;fill-opacity:0.00189885;stroke:#ffaa00;stroke-width:0.7;stroke-linecap:square;stroke-dasharray:none;stroke-opacity:1;marker-end:url(#marker18232-5)"
       id="path5374"
       sodipodi:nodetypes="ccc" />
    <path
       d="m 85.924552,210.36536 0.04162,-0.42605 z"
       style="fill:#008080;fill-opacity:0.00189885;stroke:#ffaa00;stroke-width:0.7;stroke-linecap:square;stroke-dasharray:none;stroke-opacity:1;marker-end:url(#marker18232)"
       id="path5426"
       sodipodi:nodetypes="ccc" />
    <path
       d="m 115.18932,161.00264 -0.0365,-0.44602 z"
       style="fill:#0000ff;fill-opacity:0.00189885;stroke:#ffaa00;stroke-width:0.7;stroke-linecap:square;stroke-dasharray:none;stroke-opacity:1;marker-end:url(#marker18232-3-6)"
       id="path5522"
       sodipodi:nodetypes="ccc" />
    <path
       d="m 87.168785,160.8401 0.0416,-0.42605 z"
       style="fill:#ffff00;fill-opacity:0.00189885;stroke:#ffaa00;stroke-width:0.7;stroke-linecap:square;stroke-dasharray:none;stroke-opacity:1;marker-end:url(#marker18232-5)"
       id="path5583"
       sodipodi:nodetypes="ccc" />
    <path
       d="m 120.05838,204.94252 -0.0365,-0.44602 z"
       style="fill:#008080;fill-opacity:0.00189885;stroke:#ffaa00;stroke-width:0.7;stroke-linecap:square;stroke-dasharray:none;stroke-opacity:1;marker-end:url(#marker18232-3)"
       id="path5611"
       sodipodi:nodetypes="ccc" />
    <path
       d="m 82.422654,205.64638 0.04162,-0.42605 z"
       style="fill:#008080;fill-opacity:0.00189885;stroke:#ffaa00;stroke-width:0.7;stroke-linecap:square;stroke-dasharray:none;stroke-opacity:1;marker-end:url(#marker18232-7)"
       id="path5426-3"
       sodipodi:nodetypes="ccc" />
    <g
       transform="matrix(0.927138 0 0 0.927138 123.842 212.13)"
       ns1:version="1.8.2"
       ns1:texconverter="pdflatex"
       ns1:pdfconverter="inkscape"
       ns1:text="$$y=-x^2$$"
       ns1:preamble="/usr/share/inkscape/extensions/textext/default_packages.tex"
       ns1:scale="0.812294809284617"
       ns1:alignment="middle center"
       ns1:stroke-to-path="0"
       ns1:inkscapeversion="1.2.2"
       ns1:jacobian_sqrt="0.28656"
       id="g6814"
       style="fill:#ff0000">
      <defs
         id="id-bc23c22b-7a37-44bb-82a3-15a463aa2615">
        <g
           id="id-c28ac3d6-865b-4f3b-882e-63aee3f477d1">
          <g
             id="id-165e8ed9-1341-4821-a981-f2835255e506">
            <path
               d="m 4.84375,-3.796875 c 0.046875,-0.140625 0.046875,-0.15625 0.046875,-0.234375 0,-0.171875 -0.140625,-0.265625 -0.296875,-0.265625 -0.09375,0 -0.25,0.0625 -0.34375,0.203125 -0.015625,0.0625 -0.109375,0.359375 -0.140625,0.546875 -0.078125,0.25 -0.140625,0.53125 -0.203125,0.796875 l -0.453125,1.796875 c -0.03125,0.140625 -0.46875,0.84375 -1.125,0.84375 -0.5,0 -0.609375,-0.4375 -0.609375,-0.8125 C 1.71875,-1.375 1.890625,-2 2.21875,-2.875 2.375,-3.28125 2.421875,-3.390625 2.421875,-3.59375 c 0,-0.4375 -0.3125,-0.8125 -0.8125,-0.8125 -0.953125,0 -1.3125,1.453125 -1.3125,1.53125 0,0.109375 0.09375,0.109375 0.109375,0.109375 0.109375,0 0.109375,-0.03125 0.15625,-0.1875 0.28125,-0.9375 0.671875,-1.234375 1.015625,-1.234375 0.078125,0 0.25,0 0.25,0.3125 0,0.25 -0.109375,0.515625 -0.171875,0.703125 -0.40625,1.0625 -0.578125,1.625 -0.578125,2.09375 0,0.890625 0.625,1.1875 1.21875,1.1875 0.390625,0 0.71875,-0.171875 1,-0.453125 -0.125,0.515625 -0.25,1.015625 -0.640625,1.546875 -0.265625,0.328125 -0.640625,0.625 -1.09375,0.625 -0.140625,0 -0.59375,-0.03125 -0.765625,-0.421875 0.15625,0 0.296875,0 0.421875,-0.125 C 1.328125,1.203125 1.421875,1.0625 1.421875,0.875 1.421875,0.5625 1.15625,0.53125 1.0625,0.53125 0.828125,0.53125 0.5,0.6875 0.5,1.171875 c 0,0.5 0.4375,0.875 1.0625,0.875 1.015625,0 2.046875,-0.90625 2.328125,-2.03125 z m 0,0"
               id="id-df08cdbb-8bfd-45ba-905b-4866244b607a" />
          </g>
          <g
             id="id-348a2695-60e2-48c6-a6e0-e5fd063eec9c">
            <path
               d="M 3.328125,-3.015625 C 3.390625,-3.265625 3.625,-4.1875 4.3125,-4.1875 c 0.046875,0 0.296875,0 0.5,0.125 C 4.53125,-4 4.34375,-3.765625 4.34375,-3.515625 c 0,0.15625 0.109375,0.34375 0.375,0.34375 0.21875,0 0.53125,-0.171875 0.53125,-0.578125 0,-0.515625 -0.578125,-0.65625 -0.921875,-0.65625 -0.578125,0 -0.921875,0.53125 -1.046875,0.75 -0.25,-0.65625 -0.78125,-0.75 -1.078125,-0.75 -1.03125,0 -1.609375,1.28125 -1.609375,1.53125 0,0.109375 0.109375,0.109375 0.125,0.109375 0.078125,0 0.109375,-0.03125 0.125,-0.109375 0.34375,-1.0625 1,-1.3125 1.34375,-1.3125 0.1875,0 0.53125,0.09375 0.53125,0.671875 0,0.3125 -0.171875,0.96875 -0.53125,2.375 -0.15625,0.609375 -0.515625,1.03125 -0.953125,1.03125 -0.0625,0 -0.28125,0 -0.5,-0.125 0.25,-0.0625 0.46875,-0.265625 0.46875,-0.546875 0,-0.265625 -0.21875,-0.34375 -0.359375,-0.34375 -0.3125,0 -0.546875,0.25 -0.546875,0.578125 0,0.453125 0.484375,0.65625 0.921875,0.65625 0.671875,0 1.03125,-0.703125 1.046875,-0.75 0.125,0.359375 0.484375,0.75 1.078125,0.75 1.03125,0 1.59375,-1.28125 1.59375,-1.53125 0,-0.109375 -0.078125,-0.109375 -0.109375,-0.109375 -0.09375,0 -0.109375,0.046875 -0.140625,0.109375 -0.328125,1.078125 -1,1.3125 -1.3125,1.3125 -0.390625,0 -0.546875,-0.3125 -0.546875,-0.65625 0,-0.21875 0.046875,-0.4375 0.15625,-0.875 z m 0,0"
               id="id-16139c38-729e-4aa9-ae5c-97df90398070" />
          </g>
          <g
             id="id-bd40b2c8-40aa-4d4f-9afb-3e03a9d0122b">
            <path
               d="m 6.84375,-3.265625 c 0.15625,0 0.34375,0 0.34375,-0.1875 C 7.1875,-3.65625 7,-3.65625 6.859375,-3.65625 h -5.96875 c -0.140625,0 -0.328125,0 -0.328125,0.203125 0,0.1875 0.1875,0.1875 0.328125,0.1875 z m 0.015625,1.9375 c 0.140625,0 0.328125,0 0.328125,-0.203125 0,-0.1875 -0.1875,-0.1875 -0.34375,-0.1875 H 0.890625 c -0.140625,0 -0.328125,0 -0.328125,0.1875 0,0.203125 0.1875,0.203125 0.328125,0.203125 z m 0,0"
               id="id-18ee6533-b67d-4152-8a37-004e1b418e73" />
          </g>
          <g
             id="id-872d2922-9320-4797-ae42-9f1d3b2594e3">
            <path
               d="m 6.5625,-2.296875 c 0.171875,0 0.359375,0 0.359375,-0.203125 0,-0.1875 -0.1875,-0.1875 -0.359375,-0.1875 H 1.171875 c -0.171875,0 -0.34375,0 -0.34375,0.1875 0,0.203125 0.171875,0.203125 0.34375,0.203125 z m 0,0"
               id="id-80fdbae6-3a4d-4006-aff5-75f9d8b800a2" />
          </g>
          <g
             id="id-9ec052a3-d23a-435d-8bd9-0db683828346">
            <path
               d="M 3.515625,-1.265625 H 3.28125 c -0.015625,0.15625 -0.09375,0.5625 -0.1875,0.625 C 3.046875,-0.59375 2.515625,-0.59375 2.40625,-0.59375 H 1.125 c 0.734375,-0.640625 0.984375,-0.84375 1.390625,-1.171875 0.515625,-0.40625 1,-0.84375 1,-1.5 0,-0.84375 -0.734375,-1.359375 -1.625,-1.359375 -0.859375,0 -1.453125,0.609375 -1.453125,1.25 0,0.34375 0.296875,0.390625 0.375,0.390625 0.15625,0 0.359375,-0.125 0.359375,-0.375 0,-0.125 -0.046875,-0.375 -0.40625,-0.375 C 0.984375,-4.21875 1.453125,-4.375 1.78125,-4.375 c 0.703125,0 1.0625,0.546875 1.0625,1.109375 0,0.609375 -0.4375,1.078125 -0.65625,1.328125 L 0.515625,-0.265625 C 0.4375,-0.203125 0.4375,-0.1875 0.4375,0 h 2.875 z m 0,0"
               id="id-9e5768b7-19d0-43f8-9018-29bfa43e89b2" />
          </g>
        </g>
      </defs>
      <g
         fill="#000000"
         fill-opacity="1"
         id="id-281f2992-eab3-4da1-bfa8-cc1fd9f43749"
         transform="translate(-287.702,-137.981)"
         style="fill:#ff0000">
        <g
           transform="translate(287.405,146.72)"
           id="g6795"
           style="fill:#ff0000">
          <path
             d="m 4.84375,-3.796875 c 0.046875,-0.140625 0.046875,-0.15625 0.046875,-0.234375 0,-0.171875 -0.140625,-0.265625 -0.296875,-0.265625 -0.09375,0 -0.25,0.0625 -0.34375,0.203125 -0.015625,0.0625 -0.109375,0.359375 -0.140625,0.546875 -0.078125,0.25 -0.140625,0.53125 -0.203125,0.796875 l -0.453125,1.796875 c -0.03125,0.140625 -0.46875,0.84375 -1.125,0.84375 -0.5,0 -0.609375,-0.4375 -0.609375,-0.8125 C 1.71875,-1.375 1.890625,-2 2.21875,-2.875 2.375,-3.28125 2.421875,-3.390625 2.421875,-3.59375 c 0,-0.4375 -0.3125,-0.8125 -0.8125,-0.8125 -0.953125,0 -1.3125,1.453125 -1.3125,1.53125 0,0.109375 0.09375,0.109375 0.109375,0.109375 0.109375,0 0.109375,-0.03125 0.15625,-0.1875 0.28125,-0.9375 0.671875,-1.234375 1.015625,-1.234375 0.078125,0 0.25,0 0.25,0.3125 0,0.25 -0.109375,0.515625 -0.171875,0.703125 -0.40625,1.0625 -0.578125,1.625 -0.578125,2.09375 0,0.890625 0.625,1.1875 1.21875,1.1875 0.390625,0 0.71875,-0.171875 1,-0.453125 -0.125,0.515625 -0.25,1.015625 -0.640625,1.546875 -0.265625,0.328125 -0.640625,0.625 -1.09375,0.625 -0.140625,0 -0.59375,-0.03125 -0.765625,-0.421875 0.15625,0 0.296875,0 0.421875,-0.125 C 1.328125,1.203125 1.421875,1.0625 1.421875,0.875 1.421875,0.5625 1.15625,0.53125 1.0625,0.53125 0.828125,0.53125 0.5,0.6875 0.5,1.171875 c 0,0.5 0.4375,0.875 1.0625,0.875 1.015625,0 2.046875,-0.90625 2.328125,-2.03125 z m 0,0"
             id="id-1a2d13b3-460b-4ca6-99fd-1bab74a7ddb4"
             style="fill:#ff0000" />
        </g>
      </g>
      <g
         fill="#000000"
         fill-opacity="1"
         id="id-47611ea2-c0c2-4b2b-aa05-b4c8aab3c8c3"
         transform="translate(-287.702,-137.981)"
         style="fill:#ff0000">
        <g
           transform="translate(295.414,146.72)"
           id="g6799"
           style="fill:#ff0000">
          <path
             d="m 6.84375,-3.265625 c 0.15625,0 0.34375,0 0.34375,-0.1875 C 7.1875,-3.65625 7,-3.65625 6.859375,-3.65625 h -5.96875 c -0.140625,0 -0.328125,0 -0.328125,0.203125 0,0.1875 0.1875,0.1875 0.328125,0.1875 z m 0.015625,1.9375 c 0.140625,0 0.328125,0 0.328125,-0.203125 0,-0.1875 -0.1875,-0.1875 -0.34375,-0.1875 H 0.890625 c -0.140625,0 -0.328125,0 -0.328125,0.1875 0,0.203125 0.1875,0.203125 0.328125,0.203125 z m 0,0"
             id="id-f421087d-04bc-490b-8d7a-890f2db01c21"
             style="fill:#ff0000" />
        </g>
      </g>
      <g
         fill="#000000"
         fill-opacity="1"
         id="id-f8010f11-7ff7-4840-94d8-69087b5f6d5d"
         transform="translate(-287.702,-137.981)"
         style="fill:#ff0000">
        <g
           transform="translate(305.931,146.72)"
           id="g6803"
           style="fill:#ff0000">
          <path
             d="m 6.5625,-2.296875 c 0.171875,0 0.359375,0 0.359375,-0.203125 0,-0.1875 -0.1875,-0.1875 -0.359375,-0.1875 H 1.171875 c -0.171875,0 -0.34375,0 -0.34375,0.1875 0,0.203125 0.171875,0.203125 0.34375,0.203125 z m 0,0"
             id="id-423fa5ba-ba66-433e-bae9-54b77917f2a8"
             style="fill:#ff0000" />
        </g>
      </g>
      <g
         fill="#000000"
         fill-opacity="1"
         id="id-28950de3-9891-4a96-8ef2-ec49d541f037"
         transform="translate(-287.702,-137.981)"
         style="fill:#ff0000">
        <g
           transform="translate(313.679,146.72)"
           id="g6807"
           style="fill:#ff0000">
          <path
             d="M 3.328125,-3.015625 C 3.390625,-3.265625 3.625,-4.1875 4.3125,-4.1875 c 0.046875,0 0.296875,0 0.5,0.125 C 4.53125,-4 4.34375,-3.765625 4.34375,-3.515625 c 0,0.15625 0.109375,0.34375 0.375,0.34375 0.21875,0 0.53125,-0.171875 0.53125,-0.578125 0,-0.515625 -0.578125,-0.65625 -0.921875,-0.65625 -0.578125,0 -0.921875,0.53125 -1.046875,0.75 -0.25,-0.65625 -0.78125,-0.75 -1.078125,-0.75 -1.03125,0 -1.609375,1.28125 -1.609375,1.53125 0,0.109375 0.109375,0.109375 0.125,0.109375 0.078125,0 0.109375,-0.03125 0.125,-0.109375 0.34375,-1.0625 1,-1.3125 1.34375,-1.3125 0.1875,0 0.53125,0.09375 0.53125,0.671875 0,0.3125 -0.171875,0.96875 -0.53125,2.375 -0.15625,0.609375 -0.515625,1.03125 -0.953125,1.03125 -0.0625,0 -0.28125,0 -0.5,-0.125 0.25,-0.0625 0.46875,-0.265625 0.46875,-0.546875 0,-0.265625 -0.21875,-0.34375 -0.359375,-0.34375 -0.3125,0 -0.546875,0.25 -0.546875,0.578125 0,0.453125 0.484375,0.65625 0.921875,0.65625 0.671875,0 1.03125,-0.703125 1.046875,-0.75 0.125,0.359375 0.484375,0.75 1.078125,0.75 1.03125,0 1.59375,-1.28125 1.59375,-1.53125 0,-0.109375 -0.078125,-0.109375 -0.109375,-0.109375 -0.09375,0 -0.109375,0.046875 -0.140625,0.109375 -0.328125,1.078125 -1,1.3125 -1.3125,1.3125 -0.390625,0 -0.546875,-0.3125 -0.546875,-0.65625 0,-0.21875 0.046875,-0.4375 0.15625,-0.875 z m 0,0"
             id="id-3efca398-b365-4e20-9895-e6b1d401eb16"
             style="fill:#ff0000" />
        </g>
      </g>
      <g
         fill="#000000"
         fill-opacity="1"
         id="id-4fe7e9af-e2b9-4290-9c4f-e22398ef76c9"
         transform="translate(-287.702,-137.981)"
         style="fill:#ff0000">
        <g
           transform="translate(319.373,142.606)"
           id="g6811"
           style="fill:#ff0000">
          <path
             d="M 3.515625,-1.265625 H 3.28125 c -0.015625,0.15625 -0.09375,0.5625 -0.1875,0.625 C 3.046875,-0.59375 2.515625,-0.59375 2.40625,-0.59375 H 1.125 c 0.734375,-0.640625 0.984375,-0.84375 1.390625,-1.171875 0.515625,-0.40625 1,-0.84375 1,-1.5 0,-0.84375 -0.734375,-1.359375 -1.625,-1.359375 -0.859375,0 -1.453125,0.609375 -1.453125,1.25 0,0.34375 0.296875,0.390625 0.375,0.390625 0.15625,0 0.359375,-0.125 0.359375,-0.375 0,-0.125 -0.046875,-0.375 -0.40625,-0.375 C 0.984375,-4.21875 1.453125,-4.375 1.78125,-4.375 c 0.703125,0 1.0625,0.546875 1.0625,1.109375 0,0.609375 -0.4375,1.078125 -0.65625,1.328125 L 0.515625,-0.265625 C 0.4375,-0.203125 0.4375,-0.1875 0.4375,0 h 2.875 z m 0,0"
             id="id-7bd96c55-25c7-40fc-8f3d-0e7ad73dfc6a"
             style="fill:#ff0000" />
        </g>
      </g>
    </g>
    <g
       transform="matrix(0.9271385,0,0,0.9271385,110.06616,109.12023)"
       ns1:version="1.8.2"
       ns1:texconverter="pdflatex"
       ns1:pdfconverter="inkscape"
       ns1:text="$$y=1-x^2$$"
       ns1:preamble="/usr/share/inkscape/extensions/textext/default_packages.tex"
       ns1:scale="0.812294809284617"
       ns1:alignment="middle center"
       ns1:stroke-to-path="0"
       ns1:inkscapeversion="1.2.2"
       ns1:jacobian_sqrt="0.28656"
       id="g8204"
       style="fill:#0000ff">
      <defs
         id="id-61f6b862-035d-4e64-b91b-f359778853b0">
        <g
           id="id-177e3845-48c1-48d8-8c3f-4a512c94bc5b">
          <g
             id="id-4df0c2fe-1b78-425d-b1ee-0599fe90bd70">
            <path
               d="m 4.84375,-3.796875 c 0.046875,-0.140625 0.046875,-0.15625 0.046875,-0.234375 0,-0.171875 -0.140625,-0.265625 -0.296875,-0.265625 -0.09375,0 -0.25,0.0625 -0.34375,0.203125 -0.015625,0.0625 -0.109375,0.359375 -0.140625,0.546875 -0.078125,0.25 -0.140625,0.53125 -0.203125,0.796875 l -0.453125,1.796875 c -0.03125,0.140625 -0.46875,0.84375 -1.125,0.84375 -0.5,0 -0.609375,-0.4375 -0.609375,-0.8125 C 1.71875,-1.375 1.890625,-2 2.21875,-2.875 2.375,-3.28125 2.421875,-3.390625 2.421875,-3.59375 c 0,-0.4375 -0.3125,-0.8125 -0.8125,-0.8125 -0.953125,0 -1.3125,1.453125 -1.3125,1.53125 0,0.109375 0.09375,0.109375 0.109375,0.109375 0.109375,0 0.109375,-0.03125 0.15625,-0.1875 0.28125,-0.9375 0.671875,-1.234375 1.015625,-1.234375 0.078125,0 0.25,0 0.25,0.3125 0,0.25 -0.109375,0.515625 -0.171875,0.703125 -0.40625,1.0625 -0.578125,1.625 -0.578125,2.09375 0,0.890625 0.625,1.1875 1.21875,1.1875 0.390625,0 0.71875,-0.171875 1,-0.453125 -0.125,0.515625 -0.25,1.015625 -0.640625,1.546875 -0.265625,0.328125 -0.640625,0.625 -1.09375,0.625 -0.140625,0 -0.59375,-0.03125 -0.765625,-0.421875 0.15625,0 0.296875,0 0.421875,-0.125 C 1.328125,1.203125 1.421875,1.0625 1.421875,0.875 1.421875,0.5625 1.15625,0.53125 1.0625,0.53125 0.828125,0.53125 0.5,0.6875 0.5,1.171875 c 0,0.5 0.4375,0.875 1.0625,0.875 1.015625,0 2.046875,-0.90625 2.328125,-2.03125 z m 0,0"
               id="id-70802275-2e06-4a0c-a758-6b74c332bd02" />
          </g>
          <g
             id="id-d509872a-a544-4f2f-acf1-29290c16656f">
            <path
               d="M 3.328125,-3.015625 C 3.390625,-3.265625 3.625,-4.1875 4.3125,-4.1875 c 0.046875,0 0.296875,0 0.5,0.125 C 4.53125,-4 4.34375,-3.765625 4.34375,-3.515625 c 0,0.15625 0.109375,0.34375 0.375,0.34375 0.21875,0 0.53125,-0.171875 0.53125,-0.578125 0,-0.515625 -0.578125,-0.65625 -0.921875,-0.65625 -0.578125,0 -0.921875,0.53125 -1.046875,0.75 -0.25,-0.65625 -0.78125,-0.75 -1.078125,-0.75 -1.03125,0 -1.609375,1.28125 -1.609375,1.53125 0,0.109375 0.109375,0.109375 0.125,0.109375 0.078125,0 0.109375,-0.03125 0.125,-0.109375 0.34375,-1.0625 1,-1.3125 1.34375,-1.3125 0.1875,0 0.53125,0.09375 0.53125,0.671875 0,0.3125 -0.171875,0.96875 -0.53125,2.375 -0.15625,0.609375 -0.515625,1.03125 -0.953125,1.03125 -0.0625,0 -0.28125,0 -0.5,-0.125 0.25,-0.0625 0.46875,-0.265625 0.46875,-0.546875 0,-0.265625 -0.21875,-0.34375 -0.359375,-0.34375 -0.3125,0 -0.546875,0.25 -0.546875,0.578125 0,0.453125 0.484375,0.65625 0.921875,0.65625 0.671875,0 1.03125,-0.703125 1.046875,-0.75 0.125,0.359375 0.484375,0.75 1.078125,0.75 1.03125,0 1.59375,-1.28125 1.59375,-1.53125 0,-0.109375 -0.078125,-0.109375 -0.109375,-0.109375 -0.09375,0 -0.109375,0.046875 -0.140625,0.109375 -0.328125,1.078125 -1,1.3125 -1.3125,1.3125 -0.390625,0 -0.546875,-0.3125 -0.546875,-0.65625 0,-0.21875 0.046875,-0.4375 0.15625,-0.875 z m 0,0"
               id="id-a1c768f2-f07e-4872-a36f-f42978ebc263" />
          </g>
          <g
             id="id-14927100-93c7-4b2c-add0-ca88c4be747c">
            <path
               d="m 6.84375,-3.265625 c 0.15625,0 0.34375,0 0.34375,-0.1875 C 7.1875,-3.65625 7,-3.65625 6.859375,-3.65625 h -5.96875 c -0.140625,0 -0.328125,0 -0.328125,0.203125 0,0.1875 0.1875,0.1875 0.328125,0.1875 z m 0.015625,1.9375 c 0.140625,0 0.328125,0 0.328125,-0.203125 0,-0.1875 -0.1875,-0.1875 -0.34375,-0.1875 H 0.890625 c -0.140625,0 -0.328125,0 -0.328125,0.1875 0,0.203125 0.1875,0.203125 0.328125,0.203125 z m 0,0"
               id="id-0519774d-64f5-48eb-8691-0b287ec37c55" />
          </g>
          <g
             id="id-51650355-a8c0-4ed0-b01a-28ff354313e7">
            <path
               d="m 2.9375,-6.375 c 0,-0.25 0,-0.265625 -0.234375,-0.265625 C 2.078125,-6 1.203125,-6 0.890625,-6 v 0.3125 c 0.203125,0 0.78125,0 1.296875,-0.265625 v 5.171875 c 0,0.359375 -0.03125,0.46875 -0.921875,0.46875 h -0.3125 V 0 c 0.34375,-0.03125 1.203125,-0.03125 1.609375,-0.03125 0.390625,0 1.265625,0 1.609375,0.03125 v -0.3125 h -0.3125 c -0.90625,0 -0.921875,-0.109375 -0.921875,-0.46875 z m 0,0"
               id="id-b3929854-69b5-4141-90ab-7723dc19f803" />
          </g>
          <g
             id="id-49fd2948-4a80-4414-9f49-bc957466c37c">
            <path
               d="m 6.5625,-2.296875 c 0.171875,0 0.359375,0 0.359375,-0.203125 0,-0.1875 -0.1875,-0.1875 -0.359375,-0.1875 H 1.171875 c -0.171875,0 -0.34375,0 -0.34375,0.1875 0,0.203125 0.171875,0.203125 0.34375,0.203125 z m 0,0"
               id="id-0f92077f-605c-4c0e-b451-f65d6e1e2ae1" />
          </g>
          <g
             id="id-344ffc82-21fb-4a8f-8169-9555fbd6af4f">
            <path
               d="M 3.515625,-1.265625 H 3.28125 c -0.015625,0.15625 -0.09375,0.5625 -0.1875,0.625 C 3.046875,-0.59375 2.515625,-0.59375 2.40625,-0.59375 H 1.125 c 0.734375,-0.640625 0.984375,-0.84375 1.390625,-1.171875 0.515625,-0.40625 1,-0.84375 1,-1.5 0,-0.84375 -0.734375,-1.359375 -1.625,-1.359375 -0.859375,0 -1.453125,0.609375 -1.453125,1.25 0,0.34375 0.296875,0.390625 0.375,0.390625 0.15625,0 0.359375,-0.125 0.359375,-0.375 0,-0.125 -0.046875,-0.375 -0.40625,-0.375 C 0.984375,-4.21875 1.453125,-4.375 1.78125,-4.375 c 0.703125,0 1.0625,0.546875 1.0625,1.109375 0,0.609375 -0.4375,1.078125 -0.65625,1.328125 L 0.515625,-0.265625 C 0.4375,-0.203125 0.4375,-0.1875 0.4375,0 h 2.875 z m 0,0"
               id="id-6522e126-8a2f-40a7-b2f5-457478a9bfb1" />
          </g>
        </g>
      </defs>
      <g
         fill="#000000"
         fill-opacity="1"
         id="id-68ae1c60-67f7-4e33-82d9-da5b5858e717"
         transform="translate(-282.998,-137.981)"
         style="fill:#0000ff">
        <g
           transform="translate(282.701,146.72)"
           id="g8181"
           style="fill:#0000ff">
          <path
             d="m 4.84375,-3.796875 c 0.046875,-0.140625 0.046875,-0.15625 0.046875,-0.234375 0,-0.171875 -0.140625,-0.265625 -0.296875,-0.265625 -0.09375,0 -0.25,0.0625 -0.34375,0.203125 -0.015625,0.0625 -0.109375,0.359375 -0.140625,0.546875 -0.078125,0.25 -0.140625,0.53125 -0.203125,0.796875 l -0.453125,1.796875 c -0.03125,0.140625 -0.46875,0.84375 -1.125,0.84375 -0.5,0 -0.609375,-0.4375 -0.609375,-0.8125 C 1.71875,-1.375 1.890625,-2 2.21875,-2.875 2.375,-3.28125 2.421875,-3.390625 2.421875,-3.59375 c 0,-0.4375 -0.3125,-0.8125 -0.8125,-0.8125 -0.953125,0 -1.3125,1.453125 -1.3125,1.53125 0,0.109375 0.09375,0.109375 0.109375,0.109375 0.109375,0 0.109375,-0.03125 0.15625,-0.1875 0.28125,-0.9375 0.671875,-1.234375 1.015625,-1.234375 0.078125,0 0.25,0 0.25,0.3125 0,0.25 -0.109375,0.515625 -0.171875,0.703125 -0.40625,1.0625 -0.578125,1.625 -0.578125,2.09375 0,0.890625 0.625,1.1875 1.21875,1.1875 0.390625,0 0.71875,-0.171875 1,-0.453125 -0.125,0.515625 -0.25,1.015625 -0.640625,1.546875 -0.265625,0.328125 -0.640625,0.625 -1.09375,0.625 -0.140625,0 -0.59375,-0.03125 -0.765625,-0.421875 0.15625,0 0.296875,0 0.421875,-0.125 C 1.328125,1.203125 1.421875,1.0625 1.421875,0.875 1.421875,0.5625 1.15625,0.53125 1.0625,0.53125 0.828125,0.53125 0.5,0.6875 0.5,1.171875 c 0,0.5 0.4375,0.875 1.0625,0.875 1.015625,0 2.046875,-0.90625 2.328125,-2.03125 z m 0,0"
             id="id-5ceb3bc7-c51a-478a-be06-979e11be11da"
             style="fill:#0000ff" />
        </g>
      </g>
      <g
         fill="#000000"
         fill-opacity="1"
         id="id-d6330323-69a6-4aad-9b67-309f2a49e306"
         transform="translate(-282.998,-137.981)"
         style="fill:#0000ff">
        <g
           transform="translate(290.71,146.72)"
           id="g8185"
           style="fill:#0000ff">
          <path
             d="m 6.84375,-3.265625 c 0.15625,0 0.34375,0 0.34375,-0.1875 C 7.1875,-3.65625 7,-3.65625 6.859375,-3.65625 h -5.96875 c -0.140625,0 -0.328125,0 -0.328125,0.203125 0,0.1875 0.1875,0.1875 0.328125,0.1875 z m 0.015625,1.9375 c 0.140625,0 0.328125,0 0.328125,-0.203125 0,-0.1875 -0.1875,-0.1875 -0.34375,-0.1875 H 0.890625 c -0.140625,0 -0.328125,0 -0.328125,0.1875 0,0.203125 0.1875,0.203125 0.328125,0.203125 z m 0,0"
             id="id-c02deb98-251c-4c39-8f35-20a6d05aba80"
             style="fill:#0000ff" />
        </g>
      </g>
      <g
         fill="#000000"
         fill-opacity="1"
         id="id-6d817d7a-9d04-42dd-ac58-4a4feed0584e"
         transform="translate(-282.998,-137.981)"
         style="fill:#0000ff">
        <g
           transform="translate(301.229,146.72)"
           id="g8189"
           style="fill:#0000ff">
          <path
             d="m 2.9375,-6.375 c 0,-0.25 0,-0.265625 -0.234375,-0.265625 C 2.078125,-6 1.203125,-6 0.890625,-6 v 0.3125 c 0.203125,0 0.78125,0 1.296875,-0.265625 v 5.171875 c 0,0.359375 -0.03125,0.46875 -0.921875,0.46875 h -0.3125 V 0 c 0.34375,-0.03125 1.203125,-0.03125 1.609375,-0.03125 0.390625,0 1.265625,0 1.609375,0.03125 v -0.3125 h -0.3125 c -0.90625,0 -0.921875,-0.109375 -0.921875,-0.46875 z m 0,0"
             id="id-eb38b34a-aff5-4a46-ba6e-c7e842f619a3"
             style="fill:#0000ff" />
        </g>
      </g>
      <g
         fill="#000000"
         fill-opacity="1"
         id="id-8a7f81c8-ba6e-4172-accb-d6f45f022867"
         transform="translate(-282.998,-137.981)"
         style="fill:#0000ff">
        <g
           transform="translate(308.421,146.72)"
           id="g8193"
           style="fill:#0000ff">
          <path
             d="m 6.5625,-2.296875 c 0.171875,0 0.359375,0 0.359375,-0.203125 0,-0.1875 -0.1875,-0.1875 -0.359375,-0.1875 H 1.171875 c -0.171875,0 -0.34375,0 -0.34375,0.1875 0,0.203125 0.171875,0.203125 0.34375,0.203125 z m 0,0"
             id="id-46b51b28-f0ad-4dc4-b21f-21fc8e174969"
             style="fill:#0000ff" />
        </g>
      </g>
      <g
         fill="#000000"
         fill-opacity="1"
         id="id-183be885-2c35-46e0-ac33-cd4420aa7057"
         transform="translate(-282.998,-137.981)"
         style="fill:#0000ff">
        <g
           transform="translate(318.384,146.72)"
           id="g8197"
           style="fill:#0000ff">
          <path
             d="M 3.328125,-3.015625 C 3.390625,-3.265625 3.625,-4.1875 4.3125,-4.1875 c 0.046875,0 0.296875,0 0.5,0.125 C 4.53125,-4 4.34375,-3.765625 4.34375,-3.515625 c 0,0.15625 0.109375,0.34375 0.375,0.34375 0.21875,0 0.53125,-0.171875 0.53125,-0.578125 0,-0.515625 -0.578125,-0.65625 -0.921875,-0.65625 -0.578125,0 -0.921875,0.53125 -1.046875,0.75 -0.25,-0.65625 -0.78125,-0.75 -1.078125,-0.75 -1.03125,0 -1.609375,1.28125 -1.609375,1.53125 0,0.109375 0.109375,0.109375 0.125,0.109375 0.078125,0 0.109375,-0.03125 0.125,-0.109375 0.34375,-1.0625 1,-1.3125 1.34375,-1.3125 0.1875,0 0.53125,0.09375 0.53125,0.671875 0,0.3125 -0.171875,0.96875 -0.53125,2.375 -0.15625,0.609375 -0.515625,1.03125 -0.953125,1.03125 -0.0625,0 -0.28125,0 -0.5,-0.125 0.25,-0.0625 0.46875,-0.265625 0.46875,-0.546875 0,-0.265625 -0.21875,-0.34375 -0.359375,-0.34375 -0.3125,0 -0.546875,0.25 -0.546875,0.578125 0,0.453125 0.484375,0.65625 0.921875,0.65625 0.671875,0 1.03125,-0.703125 1.046875,-0.75 0.125,0.359375 0.484375,0.75 1.078125,0.75 1.03125,0 1.59375,-1.28125 1.59375,-1.53125 0,-0.109375 -0.078125,-0.109375 -0.109375,-0.109375 -0.09375,0 -0.109375,0.046875 -0.140625,0.109375 -0.328125,1.078125 -1,1.3125 -1.3125,1.3125 -0.390625,0 -0.546875,-0.3125 -0.546875,-0.65625 0,-0.21875 0.046875,-0.4375 0.15625,-0.875 z m 0,0"
             id="id-25bfa431-5846-4b45-9987-b8592f59ff2d"
             style="fill:#0000ff" />
        </g>
      </g>
      <g
         fill="#000000"
         fill-opacity="1"
         id="id-4bb87052-494f-45af-b5a9-f831a881c497"
         transform="translate(-282.998,-137.981)"
         style="fill:#0000ff">
        <g
           transform="translate(324.078,142.606)"
           id="g8201"
           style="fill:#0000ff">
          <path
             d="M 3.515625,-1.265625 H 3.28125 c -0.015625,0.15625 -0.09375,0.5625 -0.1875,0.625 C 3.046875,-0.59375 2.515625,-0.59375 2.40625,-0.59375 H 1.125 c 0.734375,-0.640625 0.984375,-0.84375 1.390625,-1.171875 0.515625,-0.40625 1,-0.84375 1,-1.5 0,-0.84375 -0.734375,-1.359375 -1.625,-1.359375 -0.859375,0 -1.453125,0.609375 -1.453125,1.25 0,0.34375 0.296875,0.390625 0.375,0.390625 0.15625,0 0.359375,-0.125 0.359375,-0.375 0,-0.125 -0.046875,-0.375 -0.40625,-0.375 C 0.984375,-4.21875 1.453125,-4.375 1.78125,-4.375 c 0.703125,0 1.0625,0.546875 1.0625,1.109375 0,0.609375 -0.4375,1.078125 -0.65625,1.328125 L 0.515625,-0.265625 C 0.4375,-0.203125 0.4375,-0.1875 0.4375,0 h 2.875 z m 0,0"
             id="id-b121c49b-ee7d-4949-a988-a4e7c5a4a7aa"
             style="fill:#0000ff" />
        </g>
      </g>
    </g>
  </g>
</svg>
